<svg width="512" height="512" viewBox="0 0 512 512" fill="none" xmlns="http://www.w3.org/2000/svg">
<g clip-path="url(#clip0_205_21)">
<mask id="mask0_205_21" style="mask-type:alpha" maskUnits="userSpaceOnUse" x="0" y="0" width="512" height="512">
<rect width="512" height="512" rx="256" fill="white"/>
</mask>
<g mask="url(#mask0_205_21)">
<rect width="512" height="512" fill="white"/>
<path fill-rule="evenodd" clip-rule="evenodd" d="M255.36 128H256V0H255.36V128Z" fill="url(#paint0_radial_205_21)" fill-opacity="0.03"/>
<path fill-rule="evenodd" clip-rule="evenodd" d="M255.36 256H256V128H255.36V256Z" fill="url(#paint1_radial_205_21)" fill-opacity="0.03"/>
<path fill-rule="evenodd" clip-rule="evenodd" d="M255.36 384H256V256H255.36V384Z" fill="url(#paint2_radial_205_21)" fill-opacity="0.03"/>
<path fill-rule="evenodd" clip-rule="evenodd" d="M255.36 512H256V384H255.36V512Z" fill="url(#paint3_radial_205_21)" fill-opacity="0.03"/>
<path fill-rule="evenodd" clip-rule="evenodd" d="M256 128H320V0H319.36V126.72H256V128Z" fill="url(#paint4_radial_205_21)" fill-opacity="0.03"/>
<path fill-rule="evenodd" clip-rule="evenodd" d="M256 256H320V128H319.36V254.72H256V256Z" fill="url(#paint5_radial_205_21)" fill-opacity="0.03"/>
<path fill-rule="evenodd" clip-rule="evenodd" d="M256 384H320V256H319.36V382.72H256V384Z" fill="url(#paint6_radial_205_21)" fill-opacity="0.03"/>
<path fill-rule="evenodd" clip-rule="evenodd" d="M319.36 512H320V384H319.36V512Z" fill="url(#paint7_radial_205_21)" fill-opacity="0.03"/>
<path fill-rule="evenodd" clip-rule="evenodd" d="M320 128H384V0H383.36V126.72H320V128Z" fill="url(#paint8_radial_205_21)" fill-opacity="0.03"/>
<path fill-rule="evenodd" clip-rule="evenodd" d="M384 128H448V0H447.36V126.72H384V128Z" fill="url(#paint9_radial_205_21)" fill-opacity="0.03"/>
<path fill-rule="evenodd" clip-rule="evenodd" d="M320 256H384V128H383.36V254.72H320V256Z" fill="url(#paint10_radial_205_21)" fill-opacity="0.03"/>
<path fill-rule="evenodd" clip-rule="evenodd" d="M384 256H448V128H447.36V254.72H384V256Z" fill="url(#paint11_radial_205_21)" fill-opacity="0.03"/>
<path fill-rule="evenodd" clip-rule="evenodd" d="M320 384H384V256H383.36V382.72H320V384Z" fill="url(#paint12_radial_205_21)" fill-opacity="0.03"/>
<path fill-rule="evenodd" clip-rule="evenodd" d="M384 384H448V256H447.36V382.72H384V384Z" fill="url(#paint13_radial_205_21)" fill-opacity="0.03"/>
<path fill-rule="evenodd" clip-rule="evenodd" d="M383.36 512H384V384H383.36V512Z" fill="url(#paint14_radial_205_21)" fill-opacity="0.03"/>
<path fill-rule="evenodd" clip-rule="evenodd" d="M447.36 512H448V384H447.36V512Z" fill="url(#paint15_radial_205_21)" fill-opacity="0.03"/>
<path fill-rule="evenodd" clip-rule="evenodd" d="M448 126.72V128H512V126.72H448Z" fill="url(#paint16_radial_205_21)" fill-opacity="0.03"/>
<path fill-rule="evenodd" clip-rule="evenodd" d="M448 254.72V256H512V254.72H448Z" fill="url(#paint17_radial_205_21)" fill-opacity="0.03"/>
<path fill-rule="evenodd" clip-rule="evenodd" d="M448 382.72V384H512V382.72H448Z" fill="url(#paint18_radial_205_21)" fill-opacity="0.03"/>
<path fill-rule="evenodd" clip-rule="evenodd" d="M0 128H64V0H63.36V126.72H0V128Z" fill="url(#paint19_radial_205_21)" fill-opacity="0.03"/>
<path fill-rule="evenodd" clip-rule="evenodd" d="M0 256H64V128H63.36V254.72H0V256Z" fill="url(#paint20_radial_205_21)" fill-opacity="0.03"/>
<path fill-rule="evenodd" clip-rule="evenodd" d="M0 384H64V256H63.36V382.72H0V384Z" fill="url(#paint21_radial_205_21)" fill-opacity="0.03"/>
<path fill-rule="evenodd" clip-rule="evenodd" d="M63.36 512H64V384H63.36V512Z" fill="url(#paint22_radial_205_21)" fill-opacity="0.03"/>
<path fill-rule="evenodd" clip-rule="evenodd" d="M64 128H128V0H127.36V126.72H64V128Z" fill="url(#paint23_radial_205_21)" fill-opacity="0.03"/>
<path fill-rule="evenodd" clip-rule="evenodd" d="M64 256H128V128H127.36V254.72H64V256Z" fill="url(#paint24_radial_205_21)" fill-opacity="0.03"/>
<path fill-rule="evenodd" clip-rule="evenodd" d="M64 384H128V256H127.36V382.72H64V384Z" fill="url(#paint25_radial_205_21)" fill-opacity="0.03"/>
<path fill-rule="evenodd" clip-rule="evenodd" d="M127.36 512H128V384H127.36V512Z" fill="url(#paint26_radial_205_21)" fill-opacity="0.03"/>
<path fill-rule="evenodd" clip-rule="evenodd" d="M128 128H192V0H191.36V126.72H128V128Z" fill="url(#paint27_radial_205_21)" fill-opacity="0.03"/>
<path fill-rule="evenodd" clip-rule="evenodd" d="M128 256H192V128H191.36V254.72H128V256Z" fill="url(#paint28_radial_205_21)" fill-opacity="0.03"/>
<path fill-rule="evenodd" clip-rule="evenodd" d="M128 384H192V256H191.36V382.72H128V384Z" fill="url(#paint29_radial_205_21)" fill-opacity="0.03"/>
<path fill-rule="evenodd" clip-rule="evenodd" d="M191.36 512H192V384H191.36V512Z" fill="url(#paint30_radial_205_21)" fill-opacity="0.03"/>
<path fill-rule="evenodd" clip-rule="evenodd" d="M192 126.72V128H256V126.72H192Z" fill="url(#paint31_radial_205_21)" fill-opacity="0.03"/>
<path fill-rule="evenodd" clip-rule="evenodd" d="M192 254.72V256H256V254.72H192Z" fill="url(#paint32_radial_205_21)" fill-opacity="0.03"/>
<path fill-rule="evenodd" clip-rule="evenodd" d="M192 382.72V384H256V382.72H192Z" fill="url(#paint33_radial_205_21)" fill-opacity="0.03"/>
<path d="M219.503 122.47C216.209 119.177 210.791 119.177 207.497 122.47C204.203 125.764 204.203 131.183 207.497 134.477L224.231 151.211C217.537 158.755 213.5 168.636 213.5 179.473C213.5 181.067 213.606 182.661 213.766 184.202C201.653 175.755 186.406 170.973 171 170.973C136.469 170.973 103 194.827 103 230.473C103 263.358 131.475 286.202 162.978 289.548C162.659 286.839 162.5 284.13 162.5 281.473C162.5 275.523 163.031 269.68 164.147 264.048C142.578 261.339 128.5 245.986 128.5 230.473C128.5 213.367 145.659 196.473 171 196.473C190.816 196.473 205.638 206.833 211.163 219.477C191.984 233.395 179.5 255.973 179.5 281.473C179.5 325.992 234.537 376.939 248.509 389.211C250.581 391.017 253.238 391.973 256 391.973C258.762 391.973 261.419 391.017 263.491 389.211C277.463 376.939 332.5 325.992 332.5 281.473C332.5 255.973 320.016 233.395 300.837 219.477C306.362 206.833 321.184 196.473 341 196.473C366.341 196.473 383.5 213.367 383.5 230.473C383.5 245.986 369.422 261.339 347.853 264.048C348.916 269.68 349.5 275.523 349.5 281.473C349.5 284.13 349.341 286.839 349.022 289.548C380.525 286.202 409 263.358 409 230.473C409 194.827 375.531 170.973 341 170.973C325.594 170.973 310.347 175.755 298.234 184.202C298.394 182.661 298.5 181.067 298.5 179.473C298.5 168.636 294.462 158.755 287.769 151.211L304.503 134.477C307.797 131.183 307.797 125.764 304.503 122.47C301.209 119.177 295.791 119.177 292.497 122.47L274.009 140.958C268.537 138.408 262.428 136.973 256 136.973C249.572 136.973 243.463 138.408 237.991 140.958L219.503 122.47ZM228.853 331.73C226.834 329.127 224.869 326.523 223.062 323.973H288.938C287.131 326.523 285.219 329.127 283.147 331.73C273.797 343.683 263.65 354.148 256 361.48C248.35 354.148 238.203 343.683 228.853 331.73ZM303.228 298.473H208.772C206.328 292.258 205 286.52 205 281.473H307C307 286.52 305.672 292.258 303.228 298.473ZM300.147 255.973H211.8C220.619 240.727 237.088 230.473 256 230.473C274.912 230.473 291.381 240.727 300.2 255.973H300.147Z" fill="#161A2C"/>
</g>
</g>
<defs>
<radialGradient id="paint0_radial_205_21" cx="0" cy="0" r="1" gradientUnits="userSpaceOnUse" gradientTransform="translate(511.36 256) rotate(180) scale(511.36 2045.44)">
<stop offset="0.25" stop-color="#0D0D0D"/>
<stop offset="0.49975" stop-color="#0D0D0D" stop-opacity="0.75"/>
<stop offset="0.75" stop-color="#0D0D0D"/>
</radialGradient>
<radialGradient id="paint1_radial_205_21" cx="0" cy="0" r="1" gradientUnits="userSpaceOnUse" gradientTransform="translate(511.36 256) rotate(180) scale(511.36 2045.44)">
<stop offset="0.25" stop-color="#0D0D0D"/>
<stop offset="0.49975" stop-color="#0D0D0D" stop-opacity="0.75"/>
<stop offset="0.75" stop-color="#0D0D0D"/>
</radialGradient>
<radialGradient id="paint2_radial_205_21" cx="0" cy="0" r="1" gradientUnits="userSpaceOnUse" gradientTransform="translate(511.36 256) rotate(180) scale(511.36 2045.44)">
<stop offset="0.25" stop-color="#0D0D0D"/>
<stop offset="0.49975" stop-color="#0D0D0D" stop-opacity="0.75"/>
<stop offset="0.75" stop-color="#0D0D0D"/>
</radialGradient>
<radialGradient id="paint3_radial_205_21" cx="0" cy="0" r="1" gradientUnits="userSpaceOnUse" gradientTransform="translate(511.36 256) rotate(180) scale(511.36 2045.44)">
<stop offset="0.25" stop-color="#0D0D0D"/>
<stop offset="0.49975" stop-color="#0D0D0D" stop-opacity="0.75"/>
<stop offset="0.75" stop-color="#0D0D0D"/>
</radialGradient>
<radialGradient id="paint4_radial_205_21" cx="0" cy="0" r="1" gradientUnits="userSpaceOnUse" gradientTransform="translate(511.36 256) rotate(180) scale(511.36 2045.44)">
<stop offset="0.25" stop-color="#0D0D0D"/>
<stop offset="0.49975" stop-color="#0D0D0D" stop-opacity="0.75"/>
<stop offset="0.75" stop-color="#0D0D0D"/>
</radialGradient>
<radialGradient id="paint5_radial_205_21" cx="0" cy="0" r="1" gradientUnits="userSpaceOnUse" gradientTransform="translate(511.36 256) rotate(180) scale(511.36 2045.44)">
<stop offset="0.25" stop-color="#0D0D0D"/>
<stop offset="0.49975" stop-color="#0D0D0D" stop-opacity="0.75"/>
<stop offset="0.75" stop-color="#0D0D0D"/>
</radialGradient>
<radialGradient id="paint6_radial_205_21" cx="0" cy="0" r="1" gradientUnits="userSpaceOnUse" gradientTransform="translate(511.36 256) rotate(180) scale(511.36 2045.44)">
<stop offset="0.25" stop-color="#0D0D0D"/>
<stop offset="0.49975" stop-color="#0D0D0D" stop-opacity="0.75"/>
<stop offset="0.75" stop-color="#0D0D0D"/>
</radialGradient>
<radialGradient id="paint7_radial_205_21" cx="0" cy="0" r="1" gradientUnits="userSpaceOnUse" gradientTransform="translate(511.36 256) rotate(180) scale(511.36 2045.44)">
<stop offset="0.25" stop-color="#0D0D0D"/>
<stop offset="0.49975" stop-color="#0D0D0D" stop-opacity="0.75"/>
<stop offset="0.75" stop-color="#0D0D0D"/>
</radialGradient>
<radialGradient id="paint8_radial_205_21" cx="0" cy="0" r="1" gradientUnits="userSpaceOnUse" gradientTransform="translate(511.36 256) rotate(180) scale(511.36 2045.44)">
<stop offset="0.25" stop-color="#0D0D0D"/>
<stop offset="0.49975" stop-color="#0D0D0D" stop-opacity="0.75"/>
<stop offset="0.75" stop-color="#0D0D0D"/>
</radialGradient>
<radialGradient id="paint9_radial_205_21" cx="0" cy="0" r="1" gradientUnits="userSpaceOnUse" gradientTransform="translate(511.36 256) rotate(180) scale(511.36 2045.44)">
<stop offset="0.25" stop-color="#0D0D0D"/>
<stop offset="0.49975" stop-color="#0D0D0D" stop-opacity="0.75"/>
<stop offset="0.75" stop-color="#0D0D0D"/>
</radialGradient>
<radialGradient id="paint10_radial_205_21" cx="0" cy="0" r="1" gradientUnits="userSpaceOnUse" gradientTransform="translate(511.36 256) rotate(180) scale(511.36 2045.44)">
<stop offset="0.25" stop-color="#0D0D0D"/>
<stop offset="0.49975" stop-color="#0D0D0D" stop-opacity="0.75"/>
<stop offset="0.75" stop-color="#0D0D0D"/>
</radialGradient>
<radialGradient id="paint11_radial_205_21" cx="0" cy="0" r="1" gradientUnits="userSpaceOnUse" gradientTransform="translate(511.36 256) rotate(180) scale(511.36 2045.44)">
<stop offset="0.25" stop-color="#0D0D0D"/>
<stop offset="0.49975" stop-color="#0D0D0D" stop-opacity="0.75"/>
<stop offset="0.75" stop-color="#0D0D0D"/>
</radialGradient>
<radialGradient id="paint12_radial_205_21" cx="0" cy="0" r="1" gradientUnits="userSpaceOnUse" gradientTransform="translate(511.36 256) rotate(180) scale(511.36 2045.44)">
<stop offset="0.25" stop-color="#0D0D0D"/>
<stop offset="0.49975" stop-color="#0D0D0D" stop-opacity="0.75"/>
<stop offset="0.75" stop-color="#0D0D0D"/>
</radialGradient>
<radialGradient id="paint13_radial_205_21" cx="0" cy="0" r="1" gradientUnits="userSpaceOnUse" gradientTransform="translate(511.36 256) rotate(180) scale(511.36 2045.44)">
<stop offset="0.25" stop-color="#0D0D0D"/>
<stop offset="0.49975" stop-color="#0D0D0D" stop-opacity="0.75"/>
<stop offset="0.75" stop-color="#0D0D0D"/>
</radialGradient>
<radialGradient id="paint14_radial_205_21" cx="0" cy="0" r="1" gradientUnits="userSpaceOnUse" gradientTransform="translate(511.36 256) rotate(180) scale(511.36 2045.44)">
<stop offset="0.25" stop-color="#0D0D0D"/>
<stop offset="0.49975" stop-color="#0D0D0D" stop-opacity="0.75"/>
<stop offset="0.75" stop-color="#0D0D0D"/>
</radialGradient>
<radialGradient id="paint15_radial_205_21" cx="0" cy="0" r="1" gradientUnits="userSpaceOnUse" gradientTransform="translate(511.36 256) rotate(180) scale(511.36 2045.44)">
<stop offset="0.25" stop-color="#0D0D0D"/>
<stop offset="0.49975" stop-color="#0D0D0D" stop-opacity="0.75"/>
<stop offset="0.75" stop-color="#0D0D0D"/>
</radialGradient>
<radialGradient id="paint16_radial_205_21" cx="0" cy="0" r="1" gradientUnits="userSpaceOnUse" gradientTransform="translate(511.36 256) rotate(180) scale(511.36 2045.44)">
<stop offset="0.25" stop-color="#0D0D0D"/>
<stop offset="0.49975" stop-color="#0D0D0D" stop-opacity="0.75"/>
<stop offset="0.75" stop-color="#0D0D0D"/>
</radialGradient>
<radialGradient id="paint17_radial_205_21" cx="0" cy="0" r="1" gradientUnits="userSpaceOnUse" gradientTransform="translate(511.36 256) rotate(180) scale(511.36 2045.44)">
<stop offset="0.25" stop-color="#0D0D0D"/>
<stop offset="0.49975" stop-color="#0D0D0D" stop-opacity="0.75"/>
<stop offset="0.75" stop-color="#0D0D0D"/>
</radialGradient>
<radialGradient id="paint18_radial_205_21" cx="0" cy="0" r="1" gradientUnits="userSpaceOnUse" gradientTransform="translate(511.36 256) rotate(180) scale(511.36 2045.44)">
<stop offset="0.25" stop-color="#0D0D0D"/>
<stop offset="0.49975" stop-color="#0D0D0D" stop-opacity="0.75"/>
<stop offset="0.75" stop-color="#0D0D0D"/>
</radialGradient>
<radialGradient id="paint19_radial_205_21" cx="0" cy="0" r="1" gradientUnits="userSpaceOnUse" gradientTransform="translate(511.36 256) rotate(180) scale(511.36 2045.44)">
<stop offset="0.25" stop-color="#0D0D0D"/>
<stop offset="0.49975" stop-color="#0D0D0D" stop-opacity="0.75"/>
<stop offset="0.75" stop-color="#0D0D0D"/>
</radialGradient>
<radialGradient id="paint20_radial_205_21" cx="0" cy="0" r="1" gradientUnits="userSpaceOnUse" gradientTransform="translate(511.36 256) rotate(180) scale(511.36 2045.44)">
<stop offset="0.25" stop-color="#0D0D0D"/>
<stop offset="0.49975" stop-color="#0D0D0D" stop-opacity="0.75"/>
<stop offset="0.75" stop-color="#0D0D0D"/>
</radialGradient>
<radialGradient id="paint21_radial_205_21" cx="0" cy="0" r="1" gradientUnits="userSpaceOnUse" gradientTransform="translate(511.36 256) rotate(180) scale(511.36 2045.44)">
<stop offset="0.25" stop-color="#0D0D0D"/>
<stop offset="0.49975" stop-color="#0D0D0D" stop-opacity="0.75"/>
<stop offset="0.75" stop-color="#0D0D0D"/>
</radialGradient>
<radialGradient id="paint22_radial_205_21" cx="0" cy="0" r="1" gradientUnits="userSpaceOnUse" gradientTransform="translate(511.36 256) rotate(180) scale(511.36 2045.44)">
<stop offset="0.25" stop-color="#0D0D0D"/>
<stop offset="0.49975" stop-color="#0D0D0D" stop-opacity="0.75"/>
<stop offset="0.75" stop-color="#0D0D0D"/>
</radialGradient>
<radialGradient id="paint23_radial_205_21" cx="0" cy="0" r="1" gradientUnits="userSpaceOnUse" gradientTransform="translate(511.36 256) rotate(180) scale(511.36 2045.44)">
<stop offset="0.25" stop-color="#0D0D0D"/>
<stop offset="0.49975" stop-color="#0D0D0D" stop-opacity="0.75"/>
<stop offset="0.75" stop-color="#0D0D0D"/>
</radialGradient>
<radialGradient id="paint24_radial_205_21" cx="0" cy="0" r="1" gradientUnits="userSpaceOnUse" gradientTransform="translate(511.36 256) rotate(180) scale(511.36 2045.44)">
<stop offset="0.25" stop-color="#0D0D0D"/>
<stop offset="0.49975" stop-color="#0D0D0D" stop-opacity="0.75"/>
<stop offset="0.75" stop-color="#0D0D0D"/>
</radialGradient>
<radialGradient id="paint25_radial_205_21" cx="0" cy="0" r="1" gradientUnits="userSpaceOnUse" gradientTransform="translate(511.36 256) rotate(180) scale(511.36 2045.44)">
<stop offset="0.25" stop-color="#0D0D0D"/>
<stop offset="0.49975" stop-color="#0D0D0D" stop-opacity="0.75"/>
<stop offset="0.75" stop-color="#0D0D0D"/>
</radialGradient>
<radialGradient id="paint26_radial_205_21" cx="0" cy="0" r="1" gradientUnits="userSpaceOnUse" gradientTransform="translate(511.36 256) rotate(180) scale(511.36 2045.44)">
<stop offset="0.25" stop-color="#0D0D0D"/>
<stop offset="0.49975" stop-color="#0D0D0D" stop-opacity="0.75"/>
<stop offset="0.75" stop-color="#0D0D0D"/>
</radialGradient>
<radialGradient id="paint27_radial_205_21" cx="0" cy="0" r="1" gradientUnits="userSpaceOnUse" gradientTransform="translate(511.36 256) rotate(180) scale(511.36 2045.44)">
<stop offset="0.25" stop-color="#0D0D0D"/>
<stop offset="0.49975" stop-color="#0D0D0D" stop-opacity="0.75"/>
<stop offset="0.75" stop-color="#0D0D0D"/>
</radialGradient>
<radialGradient id="paint28_radial_205_21" cx="0" cy="0" r="1" gradientUnits="userSpaceOnUse" gradientTransform="translate(511.36 256) rotate(180) scale(511.36 2045.44)">
<stop offset="0.25" stop-color="#0D0D0D"/>
<stop offset="0.49975" stop-color="#0D0D0D" stop-opacity="0.75"/>
<stop offset="0.75" stop-color="#0D0D0D"/>
</radialGradient>
<radialGradient id="paint29_radial_205_21" cx="0" cy="0" r="1" gradientUnits="userSpaceOnUse" gradientTransform="translate(511.36 256) rotate(180) scale(511.36 2045.44)">
<stop offset="0.25" stop-color="#0D0D0D"/>
<stop offset="0.49975" stop-color="#0D0D0D" stop-opacity="0.75"/>
<stop offset="0.75" stop-color="#0D0D0D"/>
</radialGradient>
<radialGradient id="paint30_radial_205_21" cx="0" cy="0" r="1" gradientUnits="userSpaceOnUse" gradientTransform="translate(511.36 256) rotate(180) scale(511.36 2045.44)">
<stop offset="0.25" stop-color="#0D0D0D"/>
<stop offset="0.49975" stop-color="#0D0D0D" stop-opacity="0.75"/>
<stop offset="0.75" stop-color="#0D0D0D"/>
</radialGradient>
<radialGradient id="paint31_radial_205_21" cx="0" cy="0" r="1" gradientUnits="userSpaceOnUse" gradientTransform="translate(511.36 256) rotate(180) scale(511.36 2045.44)">
<stop offset="0.25" stop-color="#0D0D0D"/>
<stop offset="0.49975" stop-color="#0D0D0D" stop-opacity="0.75"/>
<stop offset="0.75" stop-color="#0D0D0D"/>
</radialGradient>
<radialGradient id="paint32_radial_205_21" cx="0" cy="0" r="1" gradientUnits="userSpaceOnUse" gradientTransform="translate(511.36 256) rotate(180) scale(511.36 2045.44)">
<stop offset="0.25" stop-color="#0D0D0D"/>
<stop offset="0.49975" stop-color="#0D0D0D" stop-opacity="0.75"/>
<stop offset="0.75" stop-color="#0D0D0D"/>
</radialGradient>
<radialGradient id="paint33_radial_205_21" cx="0" cy="0" r="1" gradientUnits="userSpaceOnUse" gradientTransform="translate(511.36 256) rotate(180) scale(511.36 2045.44)">
<stop offset="0.25" stop-color="#0D0D0D"/>
<stop offset="0.49975" stop-color="#0D0D0D" stop-opacity="0.75"/>
<stop offset="0.75" stop-color="#0D0D0D"/>
</radialGradient>
<clipPath id="clip0_205_21">
<rect width="512" height="512" rx="256" fill="white"/>
</clipPath>
</defs>
</svg>
