<svg width="40" height="40" viewBox="0 0 40 40" fill="none" xmlns="http://www.w3.org/2000/svg">
<path fill-rule="evenodd" clip-rule="evenodd" d="M40 20C40 17.3824 39.4792 14.7648 38.4776 12.3464C37.476 9.928 35.9932 7.7088 34.142 5.858C32.2912 4.0068 30.072 2.524 27.6536 1.5224C25.2352 0.5208 22.6176 0 20 0C17.3824 0 14.7648 0.5208 12.3464 1.5224C9.928 2.524 7.7088 4.0068 5.858 5.858C4.0068 7.7088 2.524 9.928 1.5224 12.3464C0.5208 14.7648 0 17.3824 0 20C0 22.6176 0.5208 25.2352 1.5224 27.6536C2.524 30.072 4.0068 32.2912 5.858 34.142C7.7088 35.9932 9.928 37.476 12.3464 38.4776C14.7648 39.4792 17.3824 40 20 40C22.6176 40 25.2352 39.4792 27.6536 38.4776C30.072 37.476 32.2912 35.9932 34.142 34.142C35.9932 32.2912 37.476 30.072 38.4776 27.6536C39.4792 25.2352 40 22.6176 40 20Z" fill="#5814FB"/>
<path d="M10.5786 10.178C10.4765 10.2818 10.4726 10.4523 10.5744 10.5563L17.7618 17.8985C17.8107 17.9484 17.8381 18.0156 17.8381 18.0855V24.3972C17.8381 24.4926 17.8888 24.5807 17.9712 24.6284L19.8748 25.7303C19.9572 25.778 20.0587 25.778 20.141 25.7303L22.0447 24.6284C22.127 24.5807 22.1778 24.4926 22.1778 24.3972V18.0855C22.1778 18.0156 22.2052 17.9484 22.254 17.8985L29.4238 10.5744C29.5254 10.4705 29.5254 10.3041 29.4237 10.2003L26.7256 7.44648C26.6213 7.34007 26.4502 7.34015 26.3458 7.44646C25.946 7.8537 25.8736 7.92696 25.2853 8.52191C24.6278 9.18687 23.3259 10.5035 20.2024 13.6664C20.0984 13.7718 19.9156 13.7685 19.8114 13.6633L13.6555 7.4502C13.5511 7.34487 13.3692 7.34058 13.2652 7.4463L10.5786 10.178Z" fill="white"/>
<path d="M12.2405 22.82C12.1165 22.7473 11.9814 22.8959 12.0651 23.013L19.9013 33.9776C19.9544 34.0519 20.0646 34.0519 20.1177 33.9777L27.9601 23.0129C28.0438 22.8958 27.9087 22.7472 27.7847 22.8199L20.0767 27.3384C20.0352 27.3627 19.9838 27.3627 19.9423 27.3384L12.2405 22.82Z" fill="white"/>
<path d="M21.7556 10.1269C21.7874 10.1792 21.7796 10.2465 21.7367 10.29C21.192 10.8436 20.6467 11.3965 20.0994 11.9475C20.0474 11.9998 19.963 11.9998 19.911 11.9475C19.3653 11.3988 18.8216 10.8482 18.2786 10.2969C18.2357 10.2533 18.2279 10.186 18.2596 10.1337L19.8958 7.4379C19.9477 7.35247 20.0713 7.35246 20.1232 7.43789L21.7556 10.1269Z" fill="white"/>
<path d="M25.6397 16.5249C25.5945 16.4506 25.4918 16.4387 25.431 16.5008L23.5058 18.4675C23.4813 18.4924 23.4677 18.526 23.4677 18.561V23.5545C23.4677 23.6576 23.5792 23.7217 23.668 23.6697L28.2029 21.0083C28.2671 20.9706 28.288 20.8874 28.2493 20.8237L25.6397 16.5249Z" fill="white"/>
<path d="M16.542 23.5486C16.542 23.6517 16.4304 23.7158 16.3417 23.6637L11.8178 21.0083C11.7536 20.9706 11.7327 20.8874 11.7714 20.8237L14.3765 16.5315C14.4216 16.4572 14.5244 16.4453 14.5852 16.5074L16.5039 18.4675C16.5284 18.4924 16.542 18.526 16.542 18.561V23.5486Z" fill="white"/>
</svg>
