<svg width="32" height="32" viewBox="0 0 32 32" fill="none" xmlns="http://www.w3.org/2000/svg">
<circle cx="16" cy="16" r="16" fill="#F4F4F4"/>
<path d="M12.4714 11.5283C12.2111 11.2679 11.789 11.2679 11.5286 11.5283C11.2683 11.7886 11.2683 12.2107 11.5286 12.4711L15.0572 15.9997L11.5286 19.5283C11.2683 19.7886 11.2683 20.2107 11.5286 20.4711C11.789 20.7314 12.2111 20.7314 12.4714 20.4711L16 16.9425L19.5286 20.4711C19.789 20.7314 20.2111 20.7314 20.4714 20.4711C20.7318 20.2107 20.7318 19.7886 20.4714 19.5283L16.9428 15.9997L20.4714 12.4711C20.7318 12.2107 20.7318 11.7886 20.4714 11.5283C20.2111 11.2679 19.789 11.2679 19.5286 11.5283L16 15.0569L12.4714 11.5283Z" fill="#0C0C0C"/>
</svg>
